<svg xmlns="http://www.w3.org/2000/svg" xmlns:xlink="http://www.w3.org/1999/xlink" viewBox="0 0 51.64 89.03"><defs><clipPath id="a"><path d="M29.14,12.42S38.51,26.2,25.2,41.26l-6.43,1.59Z" fill="none"/></clipPath><clipPath id="b"><path d="M3.74,65.08S0,55.38,16.83,35,18.77,0,18.77,0s23.8,16.54,6.08,38.87C12.76,54.09,9.67,64.93,14.65,72.31" fill="none"/></clipPath><clipPath id="c"><path d="M27.69,41.14A23.95,23.95,0,1,0,51.64,65.08,23.95,23.95,0,0,0,27.69,41.14Zm0,36.82A12.87,12.87,0,1,1,40.56,65.08,12.87,12.87,0,0,1,27.69,78Z" fill="none"/></clipPath><clipPath id="d"><path d="M27.69,50.09a15,15,0,1,0,15,15A15,15,0,0,0,27.69,50.09Zm0,27.86A12.87,12.87,0,1,1,40.56,65.08,12.87,12.87,0,0,1,27.69,78Z" fill="none"/></clipPath></defs><title>Asset 3</title><g clip-path="url(#a)"><path d="M18.77,12.42v0Z" fill="#a8b1b7"/><rect x="18.77" y="12.42" width="0.2" height="30.44" fill="#a8b1b7"/><rect x="18.97" y="12.42" width="0.2" height="30.44" fill="#a7b0b6"/><rect x="19.17" y="12.42" width="0.2" height="30.44" fill="#a6afb5"/><rect x="19.37" y="12.42" width="0.2" height="30.44" fill="#a5aeb4"/><rect x="19.57" y="12.42" width="0.2" height="30.44" fill="#a4adb3"/><rect x="19.77" y="12.42" width="0.2" height="30.44" fill="#a4acb2"/><rect x="19.97" y="12.42" width="0.2" height="30.44" fill="#a3abb1"/><rect x="20.17" y="12.42" width="0.2" height="30.44" fill="#a2aab0"/><rect x="20.37" y="12.42" width="0.2" height="30.44" fill="#a1a9af"/><rect x="20.57" y="12.42" width="0.2" height="30.44" fill="#a0a8ae"/><rect x="20.77" y="12.42" width="0.2" height="30.44" fill="#9fa7ad"/><rect x="20.97" y="12.42" width="0.2" height="30.44" fill="#9ea6ac"/><rect x="21.17" y="12.42" width="0.2" height="30.44" fill="#9da5ab"/><rect x="21.36" y="12.42" width="0.2" height="30.44" fill="#9ca4aa"/><rect x="21.56" y="12.42" width="0.2" height="30.44" fill="#9ba3a9"/><rect x="21.76" y="12.42" width="0.2" height="30.44" fill="#9ba2a8"/><rect x="21.96" y="12.42" width="0.2" height="30.44" fill="#9aa1a7"/><rect x="22.16" y="12.42" width="0.2" height="30.44" fill="#99a1a6"/><rect x="22.36" y="12.42" width="0.2" height="30.44" fill="#98a0a5"/><rect x="22.56" y="12.42" width="0.2" height="30.44" fill="#979fa4"/><rect x="22.76" y="12.42" width="0.2" height="30.44" fill="#969ea3"/><rect x="22.96" y="12.42" width="0.2" height="30.44" fill="#959da2"/><rect x="23.16" y="12.42" width="0.2" height="30.44" fill="#949ca1"/><rect x="23.36" y="12.42" width="0.2" height="30.44" fill="#939ba0"/><rect x="23.56" y="12.42" width="0.2" height="30.44" fill="#939a9f"/><rect x="23.76" y="12.42" width="0.2" height="30.44" fill="#92999e"/><rect x="23.96" y="12.42" width="0.2" height="30.44" fill="#91989d"/><rect x="24.16" y="12.42" width="0.2" height="30.44" fill="#90979c"/><rect x="24.36" y="12.42" width="0.2" height="30.44" fill="#8f969b"/><rect x="24.56" y="12.42" width="0.2" height="30.44" fill="#8e959a"/><rect x="24.76" y="12.42" width="0.2" height="30.44" fill="#8d9499"/><rect x="24.96" y="12.42" width="0.2" height="30.44" fill="#8c9398"/><rect x="25.16" y="12.42" width="0.2" height="30.44" fill="#8b9297"/><rect x="25.36" y="12.42" width="0.2" height="30.44" fill="#8a9196"/><rect x="25.56" y="12.42" width="0.2" height="30.44" fill="#8a9094"/><rect x="25.76" y="12.42" width="0.2" height="30.44" fill="#898f93"/><rect x="25.96" y="12.42" width="0.2" height="30.44" fill="#888e92"/><rect x="26.16" y="12.42" width="0.2" height="30.44" fill="#878d91"/><rect x="26.36" y="12.42" width="0.2" height="30.44" fill="#868c90"/><rect x="26.56" y="12.42" width="0.2" height="30.44" fill="#858b8f"/><rect x="26.75" y="12.42" width="0.2" height="30.44" fill="#848a8e"/><rect x="26.95" y="12.42" width="0.2" height="30.44" fill="#83898d"/><rect x="27.15" y="12.42" width="0.2" height="30.44" fill="#82888c"/><rect x="27.35" y="12.42" width="0.2" height="30.44" fill="#81878b"/><rect x="27.55" y="12.42" width="0.2" height="30.44" fill="#81868a"/><rect x="27.75" y="12.42" width="0.2" height="30.44" fill="#808589"/><rect x="27.95" y="12.42" width="0.2" height="30.44" fill="#7f8488"/><rect x="28.15" y="12.42" width="0.2" height="30.44" fill="#7e8387"/><rect x="28.35" y="12.42" width="0.2" height="30.44" fill="#7d8286"/><rect x="28.55" y="12.42" width="0.2" height="30.44" fill="#7c8185"/><rect x="28.75" y="12.42" width="0.2" height="30.44" fill="#7b8084"/><rect x="28.95" y="12.42" width="0.2" height="30.44" fill="#7a8083"/><rect x="29.15" y="12.42" width="0.2" height="30.44" fill="#797f82"/><rect x="29.35" y="12.42" width="0.2" height="30.44" fill="#797e81"/><rect x="29.55" y="12.42" width="0.2" height="30.44" fill="#787d80"/><rect x="29.75" y="12.42" width="0.2" height="30.44" fill="#777c7f"/><rect x="29.95" y="12.42" width="0.2" height="30.44" fill="#767b7e"/><rect x="30.15" y="12.42" width="0.2" height="30.44" fill="#757a7d"/><rect x="30.35" y="12.42" width="0.2" height="30.44" fill="#74797c"/><rect x="30.55" y="12.42" width="0.2" height="30.44" fill="#73787b"/><rect x="30.75" y="12.42" width="0.2" height="30.44" fill="#72777a"/><rect x="30.95" y="12.42" width="0.2" height="30.44" fill="#717679"/><rect x="31.15" y="12.42" width="0.2" height="30.44" fill="#707578"/><rect x="31.35" y="12.42" width="0.2" height="30.44" fill="#707477"/><rect x="31.55" y="12.42" width="0.2" height="30.44" fill="#6f7376"/><rect x="31.75" y="12.42" width="0.2" height="30.44" fill="#6e7275"/><rect x="31.95" y="12.42" width="0.2" height="30.44" fill="#6d7174"/><rect x="32.15" y="12.42" width="0.2" height="30.44" fill="#6c7073"/><rect x="32.34" y="12.42" width="6.17" height="30.44" fill="#6c7073"/></g><g clip-path="url(#b)"><polygon points="35.21 0 0 7.73 0 0 35.21 0" fill="#6c7073"/><polygon points="36.23 0 0 7.95 0 7.73 35.21 0 36.23 0" fill="#6c7073"/><polygon points="37.26 0 0 8.18 0 7.95 36.23 0 37.26 0" fill="#6d7174"/><polygon points="38.28 0 0 8.4 0 8.18 37.26 0 38.28 0" fill="#6e7275"/><polygon points="39.3 0 0 8.63 0 8.4 38.28 0 39.3 0" fill="#6f7376"/><polygon points="40.33 0 0 8.85 0 8.63 39.3 0 40.33 0" fill="#707477"/><polygon points="40.99 0 41.01 0.07 0 9.08 0 8.85 40.33 0 40.99 0" fill="#707578"/><polygon points="41.01 0.07 41.05 0.29 0 9.3 0 9.08 41.01 0.07" fill="#717679"/><polygon points="41.05 0.29 41.1 0.5 0 9.53 0 9.3 41.05 0.29" fill="#72777a"/><polygon points="41.1 0.5 41.15 0.72 0 9.75 0 9.53 41.1 0.5" fill="#73787b"/><polygon points="41.15 0.72 41.2 0.93 0 9.97 0 9.75 41.15 0.72" fill="#74797c"/><polygon points="41.2 0.93 41.24 1.15 0 10.2 0 9.97 41.2 0.93" fill="#757a7d"/><polygon points="41.24 1.15 41.29 1.36 0 10.42 0 10.2 41.24 1.15" fill="#767b7e"/><polygon points="41.29 1.36 41.34 1.57 0 10.65 0 10.42 41.29 1.36" fill="#777c7f"/><polygon points="41.34 1.57 41.38 1.79 0 10.87 0 10.65 41.34 1.57" fill="#787d80"/><polygon points="41.38 1.79 41.43 2 0 11.1 0 10.87 41.38 1.79" fill="#797e81"/><polygon points="41.43 2 41.48 2.22 0 11.32 0 11.1 41.43 2" fill="#797f82"/><polygon points="41.48 2.22 41.52 2.43 0 11.55 0 11.32 41.48 2.22" fill="#7a8083"/><polygon points="41.52 2.43 41.57 2.65 0 11.77 0 11.55 41.52 2.43" fill="#7b8084"/><polygon points="41.57 2.65 41.62 2.86 0 11.99 0 11.77 41.57 2.65" fill="#7c8185"/><polygon points="41.62 2.86 41.66 3.07 0 12.22 0 11.99 41.62 2.86" fill="#7d8286"/><polygon points="41.66 3.07 41.71 3.29 0 12.44 0 12.22 41.66 3.07" fill="#7e8387"/><polygon points="41.71 3.29 41.76 3.5 0 12.67 0 12.44 41.71 3.29" fill="#7f8488"/><polygon points="41.76 3.5 41.81 3.72 0 12.89 0 12.67 41.76 3.5" fill="#808589"/><polygon points="41.81 3.72 41.85 3.93 0 13.12 0 12.89 41.81 3.72" fill="#81868a"/><polygon points="41.85 3.93 41.9 4.14 0 13.34 0 13.12 41.85 3.93" fill="#81878b"/><polygon points="41.9 4.14 41.95 4.36 0 13.57 0 13.34 41.9 4.14" fill="#82888c"/><polygon points="41.95 4.36 41.99 4.57 0 13.79 0 13.57 41.95 4.36" fill="#83898d"/><polygon points="41.99 4.57 42.04 4.79 0 14.02 0 13.79 41.99 4.57" fill="#848a8e"/><polygon points="42.04 4.79 42.09 5 0 14.24 0 14.02 42.04 4.79" fill="#858b8f"/><polygon points="42.09 5 42.13 5.21 0 14.46 0 14.24 42.09 5" fill="#868c90"/><polygon points="42.13 5.21 42.18 5.43 0 14.69 0 14.46 42.13 5.21" fill="#878d91"/><polygon points="42.18 5.43 42.23 5.64 0 14.91 0 14.69 42.18 5.43" fill="#888e92"/><polygon points="42.23 5.64 42.28 5.86 0 15.14 0 14.91 42.23 5.64" fill="#898f93"/><polygon points="42.28 5.86 42.32 6.07 0 15.36 0 15.14 42.28 5.86" fill="#8a9094"/><polygon points="42.32 6.07 42.37 6.29 0 15.59 0 15.36 42.32 6.07" fill="#8a9196"/><polygon points="42.37 6.29 42.42 6.5 0 15.81 0 15.59 42.37 6.29" fill="#8b9297"/><polygon points="42.42 6.5 42.46 6.71 0 16.04 0 15.81 42.42 6.5" fill="#8c9398"/><polygon points="42.46 6.71 42.51 6.93 0 16.26 0 16.04 42.46 6.71" fill="#8d9499"/><polygon points="42.51 6.93 42.56 7.14 0 16.48 0 16.26 42.51 6.93" fill="#8e959a"/><polygon points="42.56 7.14 42.57 7.21 42.57 7.36 0 16.71 0 16.48 42.56 7.14" fill="#8f969b"/><polygon points="42.57 7.59 0 16.93 0 16.71 42.57 7.36 42.57 7.59" fill="#90979c"/><polygon points="42.57 7.81 0 17.16 0 16.93 42.57 7.59 42.57 7.81" fill="#91989d"/><polygon points="42.57 8.04 0 17.38 0 17.16 42.57 7.81 42.57 8.04" fill="#92999e"/><polygon points="42.57 8.26 0 17.61 0 17.38 42.57 8.04 42.57 8.26" fill="#939a9f"/><polygon points="42.57 8.49 0 17.83 0 17.61 42.57 8.26 42.57 8.49" fill="#939ba0"/><polygon points="42.57 8.71 0 18.06 0 17.83 42.57 8.49 42.57 8.71" fill="#949ca1"/><polygon points="42.57 8.94 0 18.28 0 18.06 42.57 8.71 42.57 8.94" fill="#959da2"/><polygon points="42.57 9.16 0 18.5 0 18.28 42.57 8.94 42.57 9.16" fill="#969ea3"/><polygon points="42.57 9.38 0 18.73 0 18.5 42.57 9.16 42.57 9.38" fill="#979fa4"/><polygon points="42.57 9.61 0 18.95 0 18.73 42.57 9.38 42.57 9.61" fill="#98a0a5"/><polygon points="42.57 9.83 0 19.18 0 18.95 42.57 9.61 42.57 9.83" fill="#99a1a6"/><polygon points="42.57 10.06 0 19.4 0 19.18 42.57 9.83 42.57 10.06" fill="#9aa1a7"/><polygon points="42.57 10.28 0 19.63 0 19.4 42.57 10.06 42.57 10.28" fill="#9ba2a8"/><polygon points="42.57 10.51 0 19.85 0 19.63 42.57 10.28 42.57 10.51" fill="#9ba3a9"/><polygon points="42.57 10.73 0 20.08 0 19.85 42.57 10.51 42.57 10.73" fill="#9ca4aa"/><polygon points="42.57 10.96 0 20.3 0 20.08 42.57 10.73 42.57 10.96" fill="#9da5ab"/><polygon points="42.57 11.18 0 20.53 0 20.3 42.57 10.96 42.57 11.18" fill="#9ea6ac"/><polygon points="42.57 11.4 0 20.75 0 20.53 42.57 11.18 42.57 11.4" fill="#9fa7ad"/><polygon points="42.57 11.63 0 20.98 0 20.75 42.57 11.4 42.57 11.63" fill="#a0a8ae"/><polygon points="42.57 11.85 0 21.2 0 20.98 42.57 11.63 42.57 11.85" fill="#a1a9af"/><polygon points="42.57 12.08 0 21.42 0 21.2 42.57 11.85 42.57 12.08" fill="#a2aab0"/><polygon points="42.57 12.3 0 21.65 0 21.42 42.57 12.08 42.57 12.3" fill="#a3abb1"/><polygon points="42.57 12.53 0 21.87 0 21.65 42.57 12.3 42.57 12.53" fill="#a4acb2"/><polygon points="42.57 12.75 0 22.1 0 21.87 42.57 12.53 42.57 12.75" fill="#a4adb3"/><polygon points="42.57 12.98 0 22.32 0 22.1 42.57 12.75 42.57 12.98" fill="#a5aeb4"/><polygon points="42.57 13.2 0 22.55 0 22.32 42.57 12.98 42.57 13.2" fill="#a6afb5"/><polygon points="42.57 13.43 0 22.77 0 22.55 42.57 13.2 42.57 13.43" fill="#a7b0b6"/><polygon points="42.57 13.65 0 23 0 22.77 42.57 13.43 42.57 13.65" fill="#a8b1b7"/><polygon points="42.57 13.98 0 23.32 0 23 42.57 13.65 42.57 13.98" fill="#a8b1b7"/><polygon points="42.57 14.3 0 23.65 0 23.32 42.57 13.98 42.57 14.3" fill="#a9b2b8"/><polygon points="42.57 14.63 0 23.98 0 23.65 42.57 14.3 42.57 14.63" fill="#aab3b9"/><polygon points="42.57 14.96 0 24.3 0 23.98 42.57 14.63 42.57 14.96" fill="#abb4ba"/><polygon points="42.57 15.29 0 24.63 0 24.3 42.57 14.96 42.57 15.29" fill="#acb5ba"/><polygon points="42.57 15.61 0 24.96 0 24.63 42.57 15.29 42.57 15.61" fill="#adb6bb"/><polygon points="42.57 15.94 0 25.29 0 24.96 42.57 15.61 42.57 15.94" fill="#aeb6bc"/><polygon points="42.57 16.27 0 25.61 0 25.29 42.57 15.94 42.57 16.27" fill="#afb7bd"/><polygon points="42.57 16.59 0 25.94 0 25.61 42.57 16.27 42.57 16.59" fill="#b0b8be"/><polygon points="42.57 16.92 0 26.27 0 25.94 42.57 16.59 42.57 16.92" fill="#b1b9bf"/><polygon points="42.57 17.25 0 26.59 0 26.27 42.57 16.92 42.57 17.25" fill="#b2babf"/><polygon points="42.57 17.58 0 26.92 0 26.59 42.57 17.25 42.57 17.58" fill="#b3bbc0"/><polygon points="42.57 17.9 0 27.25 0 26.92 42.57 17.58 42.57 17.9" fill="#b4bcc1"/><polygon points="42.57 18.23 0 27.58 0 27.25 42.57 17.9 42.57 18.23" fill="#b5bdc2"/><polygon points="42.57 18.56 0 27.9 0 27.58 42.57 18.23 42.57 18.56" fill="#b6bec3"/><polygon points="42.57 18.89 0 28.23 0 27.9 42.57 18.56 42.57 18.89" fill="#b7bfc4"/><polygon points="42.57 19.21 0 28.56 0 28.23 42.57 18.89 42.57 19.21" fill="#b8c0c4"/><polygon points="42.57 19.54 0 28.89 0 28.56 42.57 19.21 42.57 19.54" fill="#b9c1c5"/><polygon points="42.57 19.87 0 29.21 0 28.89 42.57 19.54 42.57 19.87" fill="#bac1c6"/><polygon points="42.57 20.19 0 29.54 0 29.21 42.57 19.87 42.57 20.19" fill="#bbc2c7"/><polygon points="42.57 20.52 0 29.87 0 29.54 42.57 20.19 42.57 20.52" fill="#bcc3c8"/><polygon points="42.57 20.85 0 30.19 0 29.87 42.57 20.52 42.57 20.85" fill="#bdc4c9"/><polygon points="42.57 21.18 0 30.52 0 30.19 42.57 20.85 42.57 21.18" fill="#bec5c9"/><polygon points="42.57 21.5 0 30.85 0 30.52 42.57 21.18 42.57 21.5" fill="#bfc6ca"/><polygon points="42.57 21.83 0 31.18 0 30.85 42.57 21.5 42.57 21.83" fill="#c0c7cb"/><polygon points="42.57 22.16 0 31.5 0 31.18 42.57 21.83 42.57 22.16" fill="#c1c8cc"/><polygon points="42.57 22.48 0 31.83 0 31.5 42.57 22.16 42.57 22.48" fill="#c2c9cd"/><polygon points="42.57 22.81 0 32.16 0 31.83 42.57 22.48 42.57 22.81" fill="#c3cace"/><polygon points="42.57 23.14 0 32.48 0 32.16 42.57 22.81 42.57 23.14" fill="#c4cbcf"/><polygon points="42.57 23.47 0 32.81 0 32.48 42.57 23.14 42.57 23.47" fill="#c5cbcf"/><polygon points="42.57 23.79 0 33.14 0 32.81 42.57 23.47 42.57 23.79" fill="#c6ccd0"/><polygon points="42.57 24.12 0 33.47 0 33.14 42.57 23.79 42.57 24.12" fill="#c7cdd1"/><polygon points="42.57 24.45 0 33.79 0 33.47 42.57 24.12 42.57 24.45" fill="#c8ced2"/><polygon points="42.57 24.77 0 34.12 0 33.79 42.57 24.45 42.57 24.77" fill="#c9cfd3"/><polygon points="42.57 25.1 0 34.45 0 34.12 42.57 24.77 42.57 25.1" fill="#cad0d4"/><polygon points="42.57 25.43 0 34.77 0 34.45 42.57 25.1 42.57 25.43" fill="#cbd1d4"/><polygon points="42.57 25.76 0 35.1 0 34.77 42.57 25.43 42.57 25.76" fill="#ccd2d5"/><polygon points="42.57 26.08 0 35.43 0 35.1 42.57 25.76 42.57 26.08" fill="#cdd3d6"/><polygon points="42.57 26.41 0 35.76 0 35.43 42.57 26.08 42.57 26.41" fill="#ced4d7"/><polygon points="42.57 26.74 0 36.08 0 35.76 42.57 26.41 42.57 26.74" fill="#cfd5d8"/><polygon points="42.57 27.07 0 36.41 0 36.08 42.57 26.74 42.57 27.07" fill="#d0d6d9"/><polygon points="42.57 27.39 0 36.74 0 36.41 42.57 27.07 42.57 27.39" fill="#d2d6d9"/><polygon points="42.57 27.72 0 37.06 0 36.74 42.57 27.39 42.57 27.72" fill="#d3d7da"/><polygon points="42.57 28.05 0 37.39 0 37.06 42.57 27.72 42.57 28.05" fill="#d4d8db"/><polygon points="42.57 28.37 0 37.72 0 37.39 42.57 28.05 42.57 28.37" fill="#d5d9dc"/><polygon points="42.57 28.7 0 38.05 0 37.72 42.57 28.37 42.57 28.7" fill="#d6dadd"/><polygon points="42.57 29.03 0 38.37 0 38.05 42.57 28.7 42.57 29.03" fill="#d7dbde"/><polygon points="42.57 29.36 0 38.7 0 38.37 42.57 29.03 42.57 29.36" fill="#d8dcde"/><polygon points="42.57 29.68 0 39.03 0 38.7 42.57 29.36 42.57 29.68" fill="#d9dddf"/><polygon points="42.57 30.01 0 39.35 0 39.03 42.57 29.68 42.57 30.01" fill="#dadee0"/><polygon points="42.57 30.34 0 39.68 0 39.35 42.57 30.01 42.57 30.34" fill="#dbdfe1"/><polygon points="42.57 30.66 0 40.01 0 39.68 42.57 30.34 42.57 30.66" fill="#dce0e2"/><polygon points="42.57 30.99 0 40.34 0 40.01 42.57 30.66 42.57 30.99" fill="#dde1e3"/><polygon points="42.57 31.32 0 40.66 0 40.34 42.57 30.99 42.57 31.32" fill="#dee1e3"/><polygon points="42.57 31.65 0 40.99 0 40.66 42.57 31.32 42.57 31.65" fill="#dfe2e4"/><polygon points="42.57 31.97 0 41.32 0 40.99 42.57 31.65 42.57 31.97" fill="#e0e3e5"/><polygon points="42.57 32.3 0 41.65 0 41.32 42.57 31.97 42.57 32.3" fill="#e1e4e6"/><polygon points="42.57 32.63 0 41.97 0 41.65 42.57 32.3 42.57 32.63" fill="#e2e5e7"/><polygon points="42.57 32.95 0 42.3 0 41.97 42.57 32.63 42.57 32.95" fill="#e3e6e8"/><polygon points="42.57 33.28 0 42.63 0 42.3 42.57 32.95 42.57 33.28" fill="#e4e7e9"/><polygon points="42.57 33.61 0 42.95 0 42.63 42.57 33.28 42.57 33.61" fill="#e5e8e9"/><polygon points="42.57 33.94 0 43.28 0 42.95 42.57 33.61 42.57 33.94" fill="#e6e9ea"/><polygon points="42.57 34.26 0 43.61 0 43.28 42.57 33.94 42.57 34.26" fill="#e7eaeb"/><polygon points="42.57 34.59 0 43.94 0 43.61 42.57 34.26 42.57 34.59" fill="#e8ebec"/><polygon points="42.57 34.92 0 44.26 0 43.94 42.57 34.59 42.57 34.92" fill="#e9ebed"/><polygon points="42.57 35.24 0 44.59 0 44.26 42.57 34.92 42.57 35.24" fill="#eaecee"/><polygon points="42.57 35.57 0 44.92 0 44.59 42.57 35.24 42.57 35.57" fill="#ebedee"/><polygon points="42.57 35.9 0 45.24 0 44.92 42.57 35.57 42.57 35.9" fill="#eceeef"/><polygon points="42.57 36.23 0 45.57 0 45.24 42.57 35.9 42.57 36.23" fill="#edeff0"/><polygon points="42.57 36.55 0 45.9 0 45.57 42.57 36.23 42.57 36.55" fill="#eef0f1"/><polygon points="42.57 36.88 0 46.23 0 45.9 42.57 36.55 42.57 36.88" fill="#eff1f2"/><polygon points="42.57 37.21 0 46.55 0 46.23 42.57 36.88 42.57 37.21" fill="#f0f2f3"/><polygon points="42.57 37.53 0 46.88 0 46.55 42.57 37.21 42.57 37.53" fill="#f1f3f3"/><polygon points="42.57 37.86 0 47.21 0 46.88 42.57 37.53 42.57 37.86" fill="#f2f4f4"/><polygon points="42.57 38.19 0 47.53 0 47.21 42.57 37.86 42.57 38.19" fill="#f3f5f5"/><polygon points="42.57 38.52 0 47.86 0 47.53 42.57 38.19 42.57 38.52" fill="#f4f6f6"/><polygon points="42.57 38.84 0 48.19 0 47.86 42.57 38.52 42.57 38.84" fill="#f5f6f7"/><polygon points="42.57 39.17 0 48.52 0 48.19 42.57 38.84 42.57 39.17" fill="#f6f7f8"/><polygon points="42.57 39.5 0 48.84 0 48.52 42.57 39.17 42.57 39.5" fill="#f7f8f8"/><polygon points="42.57 39.83 0 49.17 0 48.84 42.57 39.5 42.57 39.83" fill="#f8f9f9"/><polygon points="42.57 40.15 0 49.5 0 49.17 42.57 39.83 42.57 40.15" fill="#f9fafa"/><polygon points="42.57 40.48 0 49.83 0 49.5 42.57 40.15 42.57 40.48" fill="#fafbfb"/><polygon points="42.57 40.83 0 50.17 0 49.83 42.57 40.48 42.57 40.83" fill="#fafbfb"/><polygon points="42.57 41.18 0 50.52 0 50.17 42.57 40.83 42.57 41.18" fill="#f9fafa"/><polygon points="42.57 41.53 0 50.87 0 50.52 42.57 41.18 42.57 41.53" fill="#f8f9f9"/><polygon points="42.57 41.88 0 51.22 0 50.87 42.57 41.53 42.57 41.88" fill="#f7f8f8"/><polygon points="42.57 42.22 0 51.57 0 51.22 42.57 41.88 42.57 42.22" fill="#f6f7f8"/><polygon points="42.57 42.57 0 51.92 0 51.57 42.57 42.22 42.57 42.57" fill="#f5f6f7"/><polygon points="42.57 42.92 0 52.27 0 51.92 42.57 42.57 42.57 42.92" fill="#f4f6f6"/><polygon points="42.57 43.27 0 52.62 0 52.27 42.57 42.92 42.57 43.27" fill="#f3f5f5"/><polygon points="42.57 43.62 0 52.97 0 52.62 42.57 43.27 42.57 43.62" fill="#f2f4f4"/><polygon points="42.57 43.97 0 53.31 0 52.97 42.57 43.62 42.57 43.97" fill="#f1f3f3"/><polygon points="42.57 44.32 0 53.66 0 53.31 42.57 43.97 42.57 44.32" fill="#f0f2f3"/><polygon points="42.57 44.67 0 54.01 0 53.66 42.57 44.32 42.57 44.67" fill="#eff1f2"/><polygon points="42.57 45.02 0 54.36 0 54.01 42.57 44.67 42.57 45.02" fill="#eef0f1"/><polygon points="42.57 45.36 0 54.71 0 54.36 42.57 45.02 42.57 45.36" fill="#edeff0"/><polygon points="42.57 45.71 0 55.06 0 54.71 42.57 45.36 42.57 45.71" fill="#eceeef"/><polygon points="42.57 46.06 0 55.41 0 55.06 42.57 45.71 42.57 46.06" fill="#ebedee"/><polygon points="42.57 46.41 0 55.76 0 55.41 42.57 46.06 42.57 46.41" fill="#eaecee"/><polygon points="42.57 46.76 0 56.1 0 55.76 42.57 46.41 42.57 46.76" fill="#e9ebed"/><polygon points="42.57 47.11 0 56.45 0 56.1 42.57 46.76 42.57 47.11" fill="#e8ebec"/><polygon points="42.57 47.46 0 56.8 0 56.45 42.57 47.11 42.57 47.46" fill="#e7eaeb"/><polygon points="42.57 47.81 0 57.15 0 56.8 42.57 47.46 42.57 47.81" fill="#e6e9ea"/><polygon points="42.57 48.16 0 57.5 0 57.15 42.57 47.81 42.57 48.16" fill="#e5e8e9"/><polygon points="42.57 48.5 0 57.85 0 57.5 42.57 48.16 42.57 48.5" fill="#e4e7e9"/><polygon points="42.57 48.85 0 58.2 0 57.85 42.57 48.5 42.57 48.85" fill="#e3e6e8"/><polygon points="42.57 49.2 0 58.55 0 58.2 42.57 48.85 42.57 49.2" fill="#e2e5e7"/><polygon points="42.57 49.55 0 58.9 0 58.55 42.57 49.2 42.57 49.55" fill="#e1e4e6"/><polygon points="42.57 49.9 0 59.24 0 58.9 42.57 49.55 42.57 49.9" fill="#e0e3e5"/><polygon points="42.57 50.25 0 59.59 0 59.24 42.57 49.9 42.57 50.25" fill="#dfe2e4"/><polygon points="42.57 50.6 0 59.94 0 59.59 42.57 50.25 42.57 50.6" fill="#dee1e3"/><polygon points="42.57 50.95 0 60.29 0 59.94 42.57 50.6 42.57 50.95" fill="#dde1e3"/><polygon points="42.57 51.3 0 60.64 0 60.29 42.57 50.95 42.57 51.3" fill="#dce0e2"/><polygon points="42.57 51.64 0 60.99 0 60.64 42.57 51.3 42.57 51.64" fill="#dbdfe1"/><polygon points="42.57 51.99 0 61.34 0 60.99 42.57 51.64 42.57 51.99" fill="#dadee0"/><polygon points="42.57 52.34 0 61.69 0 61.34 42.57 51.99 42.57 52.34" fill="#d9dddf"/><polygon points="42.57 52.69 0 62.04 0 61.69 42.57 52.34 42.57 52.69" fill="#d8dcde"/><polygon points="42.57 53.04 0 62.38 0 62.04 42.57 52.69 42.57 53.04" fill="#d7dbde"/><polygon points="42.57 53.39 0 62.73 0 62.38 42.57 53.04 42.57 53.39" fill="#d6dadd"/><polygon points="42.57 53.74 0 63.08 0 62.73 42.57 53.39 42.57 53.74" fill="#d5d9dc"/><polygon points="42.57 54.09 0 63.43 0 63.08 42.57 53.74 42.57 54.09" fill="#d4d8db"/><polygon points="42.57 54.44 0 63.78 0 63.43 42.57 54.09 42.57 54.44" fill="#d3d7da"/><polygon points="42.57 54.78 0 64.13 0 63.78 42.57 54.44 42.57 54.78" fill="#d2d6d9"/><polygon points="42.57 55.13 0 64.48 0 64.13 42.57 54.78 42.57 55.13" fill="#d0d6d9"/><polygon points="42.57 55.48 0.03 64.82 0 64.7 0 64.48 42.57 55.13 42.57 55.48" fill="#cfd5d8"/><polygon points="42.57 55.83 0.1 65.15 0.03 64.82 42.57 55.48 42.57 55.83" fill="#ced4d7"/><polygon points="42.57 56.18 0.17 65.49 0.1 65.15 42.57 55.83 42.57 56.18" fill="#cdd3d6"/><polygon points="42.57 56.53 0.24 65.82 0.17 65.49 42.57 56.18 42.57 56.53" fill="#ccd2d5"/><polygon points="42.57 56.88 0.32 66.15 0.24 65.82 42.57 56.53 42.57 56.88" fill="#cbd1d4"/><polygon points="42.57 57.23 0.39 66.48 0.32 66.15 42.57 56.88 42.57 57.23" fill="#cad0d4"/><polygon points="42.57 57.58 0.46 66.82 0.39 66.48 42.57 57.23 42.57 57.58" fill="#c9cfd3"/><polygon points="42.57 57.92 0.54 67.15 0.46 66.82 42.57 57.58 42.57 57.92" fill="#c8ced2"/><polygon points="42.57 58.27 0.61 67.48 0.54 67.15 42.57 57.92 42.57 58.27" fill="#c7cdd1"/><polygon points="42.57 58.62 0.68 67.82 0.61 67.48 42.57 58.27 42.57 58.62" fill="#c6ccd0"/><polygon points="42.57 58.97 0.76 68.15 0.68 67.82 42.57 58.62 42.57 58.97" fill="#c5cbcf"/><polygon points="42.57 59.32 0.83 68.48 0.76 68.15 42.57 58.97 42.57 59.32" fill="#c4cbcf"/><polygon points="42.57 59.67 0.9 68.81 0.83 68.48 42.57 59.32 42.57 59.67" fill="#c3cace"/><polygon points="42.57 60.02 0.98 69.15 0.9 68.81 42.57 59.67 42.57 60.02" fill="#c2c9cd"/><polygon points="42.57 60.37 1.05 69.48 0.98 69.15 42.57 60.02 42.57 60.37" fill="#c1c8cc"/><polygon points="42.57 60.71 1.12 69.81 1.05 69.48 42.57 60.37 42.57 60.71" fill="#c0c7cb"/><polygon points="42.57 61.06 1.2 70.15 1.12 69.81 42.57 60.71 42.57 61.06" fill="#bfc6ca"/><polygon points="42.57 61.41 1.27 70.48 1.2 70.15 42.57 61.06 42.57 61.41" fill="#bec5c9"/><polygon points="42.57 61.76 1.34 70.81 1.27 70.48 42.57 61.41 42.57 61.76" fill="#bdc4c9"/><polygon points="42.57 62.11 1.41 71.14 1.34 70.81 42.57 61.76 42.57 62.11" fill="#bcc3c8"/><polygon points="42.57 62.46 1.49 71.48 1.41 71.14 42.57 62.11 42.57 62.46" fill="#bbc2c7"/><polygon points="42.57 62.81 1.56 71.81 1.49 71.48 42.57 62.46 42.57 62.81" fill="#bac1c6"/><polygon points="42.57 63.16 1.63 72.14 1.56 71.81 42.57 62.81 42.57 63.16" fill="#b9c1c5"/><polygon points="42.57 63.51 2.46 72.31 1.67 72.31 1.63 72.14 42.57 63.16 42.57 63.51" fill="#b8c0c4"/><polygon points="42.57 63.85 4.05 72.31 2.46 72.31 42.57 63.51 42.57 63.85" fill="#b7bfc4"/><polygon points="42.57 64.2 5.64 72.31 4.05 72.31 42.57 63.85 42.57 64.2" fill="#b6bec3"/><polygon points="42.57 64.55 7.23 72.31 5.64 72.31 42.57 64.2 42.57 64.55" fill="#b5bdc2"/><polygon points="42.57 64.9 8.82 72.31 7.23 72.31 42.57 64.55 42.57 64.9" fill="#b4bcc1"/><polygon points="42.57 65.25 10.41 72.31 8.82 72.31 42.57 64.9 42.57 65.25" fill="#b3bbc0"/><polygon points="42.57 65.6 12 72.31 10.41 72.31 42.57 65.25 42.57 65.6" fill="#b2babf"/><polygon points="42.57 65.95 13.59 72.31 12 72.31 42.57 65.6 42.57 65.95" fill="#b1b9bf"/><polygon points="42.57 66.3 15.18 72.31 13.59 72.31 42.57 65.95 42.57 66.3" fill="#b0b8be"/><polygon points="42.57 66.64 16.77 72.31 15.18 72.31 42.57 66.3 42.57 66.64" fill="#afb7bd"/><polygon points="42.57 66.99 18.36 72.31 16.77 72.31 42.57 66.64 42.57 66.99" fill="#aeb6bc"/><polygon points="42.57 67.34 19.94 72.31 18.36 72.31 42.57 66.99 42.57 67.34" fill="#adb6bb"/><polygon points="42.57 67.69 21.53 72.31 19.94 72.31 42.57 67.34 42.57 67.69" fill="#acb5ba"/><polygon points="42.57 68.04 23.12 72.31 21.53 72.31 42.57 67.69 42.57 68.04" fill="#abb4ba"/><polygon points="42.57 68.39 24.71 72.31 23.12 72.31 42.57 68.04 42.57 68.39" fill="#aab3b9"/><polygon points="42.57 68.74 26.3 72.31 24.71 72.31 42.57 68.39 42.57 68.74" fill="#a9b2b8"/><polygon points="42.57 69.09 27.89 72.31 26.3 72.31 42.57 68.74 42.57 69.09" fill="#a8b1b7"/><polygon points="42.57 69.31 28.91 72.31 27.89 72.31 42.57 69.09 42.57 69.31" fill="#a8b1b7"/><polygon points="42.57 69.54 29.93 72.31 28.91 72.31 42.57 69.31 42.57 69.54" fill="#a7b0b6"/><polygon points="42.57 69.76 30.95 72.31 29.93 72.31 42.57 69.54 42.57 69.76" fill="#a6afb5"/><polygon points="42.57 69.98 31.98 72.31 30.95 72.31 42.57 69.76 42.57 69.98" fill="#a5aeb4"/><polygon points="42.57 70.21 33 72.31 31.98 72.31 42.57 69.98 42.57 70.21" fill="#a4adb3"/><polygon points="42.57 70.43 34.02 72.31 33 72.31 42.57 70.21 42.57 70.43" fill="#a4acb2"/><polygon points="42.57 70.66 35.04 72.31 34.02 72.31 42.57 70.43 42.57 70.66" fill="#a3abb1"/><polygon points="42.57 70.88 36.06 72.31 35.04 72.31 42.57 70.66 42.57 70.88" fill="#a2aab0"/><polygon points="42.57 71.11 37.08 72.31 36.06 72.31 42.57 70.88 42.57 71.11" fill="#a1a9af"/><polygon points="42.57 71.33 38.11 72.31 37.08 72.31 42.57 71.11 42.57 71.33" fill="#a0a8ae"/><polygon points="42.57 71.55 39.13 72.31 38.11 72.31 42.57 71.33 42.57 71.55" fill="#9fa7ad"/><polygon points="42.57 71.78 40.15 72.31 39.13 72.31 42.57 71.55 42.57 71.78" fill="#9ea6ac"/><polygon points="42.57 72 41.17 72.31 40.15 72.31 42.57 71.78 42.57 72" fill="#9da5ab"/><polygon points="42.57 72.23 42.19 72.31 41.17 72.31 42.57 72 42.57 72.23" fill="#9ca4aa"/><polygon points="42.19 72.31 42.57 72.23 42.57 72.31 42.19 72.31" fill="#9ba3a9"/></g><g clip-path="url(#c)"><polygon points="16.14 52.21 14.82 52.5 14.82 52.21 16.14 52.21" fill="#eaecee"/><polygon points="17.72 52.21 14.82 52.85 14.82 52.5 16.14 52.21 17.72 52.21" fill="#e9ebed"/><polygon points="19.31 52.21 14.82 53.2 14.82 52.85 17.72 52.21 19.31 52.21" fill="#e8ebec"/><polygon points="20.9 52.21 14.82 53.55 14.82 53.2 19.31 52.21 20.9 52.21" fill="#e7eaeb"/><polygon points="22.49 52.21 14.82 53.9 14.82 53.55 20.9 52.21 22.49 52.21" fill="#e6e9ea"/><polygon points="24.08 52.21 14.82 54.25 14.82 53.9 22.49 52.21 24.08 52.21" fill="#e5e8e9"/><polygon points="25.67 52.21 14.82 54.6 14.82 54.25 24.08 52.21 25.67 52.21" fill="#e4e7e9"/><polygon points="27.26 52.21 14.82 54.95 14.82 54.6 25.67 52.21 27.26 52.21" fill="#e3e6e8"/><polygon points="28.85 52.21 14.82 55.29 14.82 54.95 27.26 52.21 28.85 52.21" fill="#e2e5e7"/><polygon points="30.44 52.21 14.82 55.64 14.82 55.29 28.85 52.21 30.44 52.21" fill="#e1e4e6"/><polygon points="32.03 52.21 14.82 55.99 14.82 55.64 30.44 52.21 32.03 52.21" fill="#e0e3e5"/><polygon points="33.62 52.21 14.82 56.34 14.82 55.99 32.03 52.21 33.62 52.21" fill="#dfe2e4"/><polygon points="35.21 52.21 14.82 56.69 14.82 56.34 33.62 52.21 35.21 52.21" fill="#dee1e3"/><polygon points="36.8 52.21 14.82 57.04 14.82 56.69 35.21 52.21 36.8 52.21" fill="#dde1e3"/><polygon points="38.38 52.21 14.82 57.39 14.82 57.04 36.8 52.21 38.38 52.21" fill="#dce0e2"/><polygon points="39.97 52.21 14.82 57.74 14.82 57.39 38.38 52.21 39.97 52.21" fill="#dbdfe1"/><polygon points="40.56 52.44 14.82 58.09 14.82 57.74 39.97 52.21 40.56 52.21 40.56 52.44" fill="#dadee0"/><polygon points="40.56 52.78 14.82 58.43 14.82 58.09 40.56 52.44 40.56 52.78" fill="#d9dddf"/><polygon points="40.56 53.13 14.82 58.78 14.82 58.43 40.56 52.78 40.56 53.13" fill="#d8dcde"/><polygon points="40.56 53.48 14.82 59.13 14.82 58.78 40.56 53.13 40.56 53.48" fill="#d7dbde"/><polygon points="40.56 53.83 14.82 59.48 14.82 59.13 40.56 53.48 40.56 53.83" fill="#d6dadd"/><polygon points="40.56 54.18 14.82 59.83 14.82 59.48 40.56 53.83 40.56 54.18" fill="#d5d9dc"/><polygon points="40.56 54.53 14.82 60.18 14.82 59.83 40.56 54.18 40.56 54.53" fill="#d4d8db"/><polygon points="40.56 54.88 14.82 60.53 14.82 60.18 40.56 54.53 40.56 54.88" fill="#d3d7da"/><polygon points="40.56 55.23 14.82 60.88 14.82 60.53 40.56 54.88 40.56 55.23" fill="#d2d6d9"/><polygon points="40.56 55.58 14.82 61.23 14.82 60.88 40.56 55.23 40.56 55.58" fill="#d0d6d9"/><polygon points="40.56 55.92 14.82 61.57 14.82 61.23 40.56 55.58 40.56 55.92" fill="#cfd5d8"/><polygon points="40.56 56.27 14.82 61.92 14.82 61.57 40.56 55.92 40.56 56.27" fill="#ced4d7"/><polygon points="40.56 56.62 14.82 62.27 14.82 61.92 40.56 56.27 40.56 56.62" fill="#cdd3d6"/><polygon points="40.56 56.97 14.82 62.62 14.82 62.27 40.56 56.62 40.56 56.97" fill="#ccd2d5"/><polygon points="40.56 57.32 14.82 62.97 14.82 62.62 40.56 56.97 40.56 57.32" fill="#cbd1d4"/><polygon points="40.56 57.67 14.82 63.32 14.82 62.97 40.56 57.32 40.56 57.67" fill="#cad0d4"/><polygon points="40.56 58.02 14.82 63.67 14.82 63.32 40.56 57.67 40.56 58.02" fill="#c9cfd3"/><polygon points="40.56 58.37 14.82 64.02 14.82 63.67 40.56 58.02 40.56 58.37" fill="#c8ced2"/><polygon points="40.56 58.72 14.82 64.36 14.82 64.02 40.56 58.37 40.56 58.72" fill="#c7cdd1"/><polygon points="40.56 59.06 14.82 64.71 14.82 64.36 40.56 58.72 40.56 59.06" fill="#c6ccd0"/><polygon points="40.56 59.41 14.82 65.06 14.82 64.71 40.56 59.06 40.56 59.41" fill="#c5cbcf"/><polygon points="40.56 59.76 14.82 65.41 14.82 65.06 40.56 59.41 40.56 59.76" fill="#c4cbcf"/><polygon points="40.56 60.11 14.82 65.76 14.82 65.41 40.56 59.76 40.56 60.11" fill="#c3cace"/><polygon points="40.56 60.46 14.82 66.11 14.82 65.76 40.56 60.11 40.56 60.46" fill="#c2c9cd"/><polygon points="40.56 60.81 14.82 66.46 14.82 66.11 40.56 60.46 40.56 60.81" fill="#c1c8cc"/><polygon points="40.56 61.16 14.82 66.81 14.82 66.46 40.56 60.81 40.56 61.16" fill="#c0c7cb"/><polygon points="40.56 61.51 14.82 67.16 14.82 66.81 40.56 61.16 40.56 61.51" fill="#bfc6ca"/><polygon points="40.56 61.85 14.82 67.5 14.82 67.16 40.56 61.51 40.56 61.85" fill="#bec5c9"/><polygon points="40.56 62.2 14.82 67.85 14.82 67.5 40.56 61.85 40.56 62.2" fill="#bdc4c9"/><polygon points="40.56 62.55 14.82 68.2 14.82 67.85 40.56 62.2 40.56 62.55" fill="#bcc3c8"/><polygon points="40.56 62.9 14.82 68.55 14.82 68.2 40.56 62.55 40.56 62.9" fill="#bbc2c7"/><polygon points="40.56 63.25 14.82 68.9 14.82 68.55 40.56 62.9 40.56 63.25" fill="#bac1c6"/><polygon points="40.56 63.6 14.82 69.25 14.82 68.9 40.56 63.25 40.56 63.6" fill="#b9c1c5"/><polygon points="40.56 63.95 14.82 69.6 14.82 69.25 40.56 63.6 40.56 63.95" fill="#b8c0c4"/><polygon points="40.56 64.3 14.82 69.95 14.82 69.6 40.56 63.95 40.56 64.3" fill="#b7bfc4"/><polygon points="40.56 64.65 14.82 70.3 14.82 69.95 40.56 64.3 40.56 64.65" fill="#b6bec3"/><polygon points="40.56 65 14.82 70.64 14.82 70.3 40.56 64.65 40.56 65" fill="#b5bdc2"/><polygon points="40.56 65.34 14.82 70.99 14.82 70.64 40.56 65 40.56 65.34" fill="#b4bcc1"/><polygon points="40.56 65.69 14.82 71.34 14.82 70.99 40.56 65.34 40.56 65.69" fill="#b3bbc0"/><polygon points="40.56 66.04 14.82 71.69 14.82 71.34 40.56 65.69 40.56 66.04" fill="#b2babf"/><polygon points="40.56 66.39 14.82 72.04 14.82 71.69 40.56 66.04 40.56 66.39" fill="#b1b9bf"/><polygon points="40.56 66.74 14.82 72.39 14.82 72.04 40.56 66.39 40.56 66.74" fill="#b0b8be"/><polygon points="40.56 67.09 14.82 72.74 14.82 72.39 40.56 66.74 40.56 67.09" fill="#afb7bd"/><polygon points="40.56 67.44 14.82 73.09 14.82 72.74 40.56 67.09 40.56 67.44" fill="#aeb6bc"/><polygon points="40.56 67.79 14.82 73.44 14.82 73.09 40.56 67.44 40.56 67.79" fill="#adb6bb"/><polygon points="40.56 68.13 14.82 73.78 14.82 73.44 40.56 67.79 40.56 68.13" fill="#acb5ba"/><polygon points="40.56 68.48 14.82 74.13 14.82 73.78 40.56 68.13 40.56 68.48" fill="#abb4ba"/><polygon points="40.56 68.83 14.82 74.48 14.82 74.13 40.56 68.48 40.56 68.83" fill="#aab3b9"/><polygon points="40.56 69.18 14.82 74.83 14.82 74.48 40.56 68.83 40.56 69.18" fill="#a9b2b8"/><polygon points="40.56 69.53 14.82 75.18 14.82 74.83 40.56 69.18 40.56 69.53" fill="#a8b1b7"/><polygon points="40.56 69.75 14.82 75.4 14.82 75.18 40.56 69.53 40.56 69.75" fill="#a8b1b7"/><polygon points="40.56 69.98 14.82 75.63 14.82 75.4 40.56 69.75 40.56 69.98" fill="#a7b0b6"/><polygon points="40.56 70.2 14.82 75.85 14.82 75.63 40.56 69.98 40.56 70.2" fill="#a6afb5"/><polygon points="40.56 70.43 14.82 76.08 14.82 75.85 40.56 70.2 40.56 70.43" fill="#a5aeb4"/><polygon points="40.56 70.65 14.82 76.3 14.82 76.08 40.56 70.43 40.56 70.65" fill="#a4adb3"/><polygon points="40.56 70.88 14.82 76.53 14.82 76.3 40.56 70.65 40.56 70.88" fill="#a4acb2"/><polygon points="40.56 71.1 14.82 76.75 14.82 76.53 40.56 70.88 40.56 71.1" fill="#a3abb1"/><polygon points="40.56 71.32 14.82 76.97 14.82 76.75 40.56 71.1 40.56 71.32" fill="#a2aab0"/><polygon points="40.56 71.55 14.82 77.2 14.82 76.97 40.56 71.32 40.56 71.55" fill="#a1a9af"/><polygon points="40.56 71.77 14.82 77.42 14.82 77.2 40.56 71.55 40.56 71.77" fill="#a0a8ae"/><polygon points="40.56 72 14.82 77.65 14.82 77.42 40.56 71.77 40.56 72" fill="#9fa7ad"/><polygon points="40.56 72.22 14.82 77.87 14.82 77.65 40.56 72 40.56 72.22" fill="#9ea6ac"/><polygon points="40.56 72.44 15.46 77.95 14.82 77.95 14.82 77.87 40.56 72.22 40.56 72.44" fill="#9da5ab"/><polygon points="40.56 72.67 16.48 77.95 15.46 77.95 40.56 72.44 40.56 72.67" fill="#9ca4aa"/><polygon points="40.56 72.89 17.51 77.95 16.48 77.95 40.56 72.67 40.56 72.89" fill="#9ba3a9"/><polygon points="40.56 73.12 18.53 77.95 17.51 77.95 40.56 72.89 40.56 73.12" fill="#9ba2a8"/><polygon points="40.56 73.34 19.55 77.95 18.53 77.95 40.56 73.12 40.56 73.34" fill="#9aa1a7"/><polygon points="40.56 73.57 20.57 77.95 19.55 77.95 40.56 73.34 40.56 73.57" fill="#99a1a6"/><polygon points="40.56 73.79 21.59 77.95 20.57 77.95 40.56 73.57 40.56 73.79" fill="#98a0a5"/><polygon points="40.56 74.02 22.61 77.95 21.59 77.95 40.56 73.79 40.56 74.02" fill="#979fa4"/><polygon points="40.56 74.24 23.64 77.95 22.61 77.95 40.56 74.02 40.56 74.24" fill="#969ea3"/><polygon points="40.56 74.46 24.66 77.95 23.64 77.95 40.56 74.24 40.56 74.46" fill="#959da2"/><polygon points="40.56 74.69 25.68 77.95 24.66 77.95 40.56 74.46 40.56 74.69" fill="#949ca1"/><polygon points="40.56 74.91 26.7 77.95 25.68 77.95 40.56 74.69 40.56 74.91" fill="#939ba0"/><polygon points="40.56 75.14 27.72 77.95 26.7 77.95 40.56 74.91 40.56 75.14" fill="#939a9f"/><polygon points="40.56 75.36 28.74 77.95 27.72 77.95 40.56 75.14 40.56 75.36" fill="#92999e"/><polygon points="40.56 75.58 29.76 77.95 28.74 77.95 40.56 75.36 40.56 75.58" fill="#91989d"/><polygon points="40.56 75.81 30.79 77.95 29.76 77.95 40.56 75.58 40.56 75.81" fill="#90979c"/><polygon points="40.56 76.03 31.81 77.95 30.79 77.95 40.56 75.81 40.56 76.03" fill="#8f969b"/><polygon points="40.56 76.26 32.83 77.95 31.81 77.95 40.56 76.03 40.56 76.26" fill="#8e959a"/><polygon points="40.56 76.48 33.85 77.95 32.83 77.95 40.56 76.26 40.56 76.48" fill="#8d9499"/><polygon points="40.56 76.7 34.87 77.95 33.85 77.95 40.56 76.48 40.56 76.7" fill="#8c9398"/><polygon points="40.56 76.93 35.89 77.95 34.87 77.95 40.56 76.7 40.56 76.93" fill="#8b9297"/><polygon points="40.56 77.15 36.91 77.95 35.89 77.95 40.56 76.93 40.56 77.15" fill="#8a9196"/><polygon points="40.56 77.38 37.94 77.95 36.91 77.95 40.56 77.15 40.56 77.38" fill="#8a9094"/><polygon points="40.56 77.6 38.96 77.95 37.94 77.95 40.56 77.38 40.56 77.6" fill="#898f93"/><polygon points="40.56 77.83 39.98 77.95 38.96 77.95 40.56 77.6 40.56 77.83" fill="#888e92"/><polygon points="39.98 77.95 40.56 77.83 40.56 77.95 39.98 77.95" fill="#878d91"/><polygon points="3.81 41.14 3.74 41.15 3.74 41.14 3.81 41.14" fill="#e2e5e7"/><polygon points="5.3 41.14 3.74 41.48 3.74 41.15 3.81 41.14 5.3 41.14" fill="#e3e6e8"/><polygon points="6.79 41.14 3.74 41.81 3.74 41.48 5.3 41.14 6.79 41.14" fill="#e4e7e9"/><polygon points="8.28 41.14 3.74 42.13 3.74 41.81 6.79 41.14 8.28 41.14" fill="#e5e8e9"/><polygon points="9.78 41.14 3.74 42.46 3.74 42.13 8.28 41.14 9.78 41.14" fill="#e6e9ea"/><polygon points="11.27 41.14 3.74 42.79 3.74 42.46 9.78 41.14 11.27 41.14" fill="#e7eaeb"/><polygon points="12.76 41.14 3.74 43.12 3.74 42.79 11.27 41.14 12.76 41.14" fill="#e8ebec"/><polygon points="14.25 41.14 3.74 43.44 3.74 43.12 12.76 41.14 14.25 41.14" fill="#e9ebed"/><polygon points="15.74 41.14 3.74 43.77 3.74 43.44 14.25 41.14 15.74 41.14" fill="#eaecee"/><polygon points="17.23 41.14 3.74 44.1 3.74 43.77 15.74 41.14 17.23 41.14" fill="#ebedee"/><polygon points="18.72 41.14 3.74 44.42 3.74 44.1 17.23 41.14 18.72 41.14" fill="#eceeef"/><polygon points="20.21 41.14 3.74 44.75 3.74 44.42 18.72 41.14 20.21 41.14" fill="#edeff0"/><polygon points="21.7 41.14 3.74 45.08 3.74 44.75 20.21 41.14 21.7 41.14" fill="#eef0f1"/><polygon points="23.19 41.14 3.74 45.41 3.74 45.08 21.7 41.14 23.19 41.14" fill="#eff1f2"/><polygon points="24.68 41.14 3.74 45.73 3.74 45.41 23.19 41.14 24.68 41.14" fill="#f0f2f3"/><polygon points="26.17 41.14 3.74 46.06 3.74 45.73 24.68 41.14 26.17 41.14" fill="#f1f3f3"/><polygon points="27.66 41.14 3.74 46.39 3.74 46.06 26.17 41.14 27.66 41.14" fill="#f2f4f4"/><polygon points="29.15 41.14 3.74 46.71 3.74 46.39 27.66 41.14 29.15 41.14" fill="#f3f5f5"/><polygon points="30.64 41.14 3.74 47.04 3.74 46.71 29.15 41.14 30.64 41.14" fill="#f4f6f6"/><polygon points="32.13 41.14 3.74 47.37 3.74 47.04 30.64 41.14 32.13 41.14" fill="#f5f6f7"/><polygon points="33.62 41.14 3.74 47.7 3.74 47.37 32.13 41.14 33.62 41.14" fill="#f6f7f8"/><polygon points="35.11 41.14 3.74 48.02 3.74 47.7 33.62 41.14 35.11 41.14" fill="#f7f8f8"/><polygon points="36.6 41.14 3.74 48.35 3.74 48.02 35.11 41.14 36.6 41.14" fill="#f8f9f9"/><polygon points="38.1 41.14 3.74 48.68 3.74 48.35 36.6 41.14 38.1 41.14" fill="#f9fafa"/><polygon points="39.59 41.14 3.74 49 3.74 48.68 38.1 41.14 39.59 41.14" fill="#fafbfb"/><polygon points="41.18 41.14 3.74 49.35 3.74 49 39.59 41.14 41.18 41.14" fill="#fafbfb"/><polygon points="42.77 41.14 3.74 49.7 3.74 49.35 41.18 41.14 42.77 41.14" fill="#f9fafa"/><polygon points="44.35 41.14 3.74 50.05 3.74 49.7 42.77 41.14 44.35 41.14" fill="#f8f9f9"/><polygon points="45.94 41.14 3.74 50.4 3.74 50.05 44.35 41.14 45.94 41.14" fill="#f7f8f8"/><polygon points="47.53 41.14 3.74 50.75 3.74 50.4 45.94 41.14 47.53 41.14" fill="#f6f7f8"/><polygon points="49.12 41.14 3.74 51.1 3.74 50.75 47.53 41.14 49.12 41.14" fill="#f5f6f7"/><polygon points="50.71 41.14 3.74 51.45 3.74 51.1 49.12 41.14 50.71 41.14" fill="#f4f6f6"/><polygon points="51.33 41.14 51.38 41.34 3.74 51.8 3.74 51.45 50.71 41.14 51.33 41.14" fill="#f3f5f5"/><polygon points="51.38 41.34 51.45 41.67 3.74 52.14 3.74 51.8 51.38 41.34" fill="#f2f4f4"/><polygon points="51.45 41.67 51.52 42.01 3.74 52.49 3.74 52.14 51.45 41.67" fill="#f1f3f3"/><polygon points="51.52 42.01 51.59 42.34 3.74 52.84 3.74 52.49 51.52 42.01" fill="#f0f2f3"/><polygon points="51.59 42.34 51.64 42.53 51.64 42.68 3.74 53.19 3.74 52.84 51.59 42.34" fill="#eff1f2"/><polygon points="51.64 43.03 3.74 53.54 3.74 53.19 51.64 42.68 51.64 43.03" fill="#eef0f1"/><polygon points="51.64 43.38 3.74 53.89 3.74 53.54 51.64 43.03 51.64 43.38" fill="#edeff0"/><polygon points="51.64 43.72 3.74 54.24 3.74 53.89 51.64 43.38 51.64 43.72" fill="#eceeef"/><polygon points="51.64 44.07 3.74 54.59 3.74 54.24 51.64 43.72 51.64 44.07" fill="#ebedee"/><polygon points="51.64 44.42 3.74 54.94 3.74 54.59 51.64 44.07 51.64 44.42" fill="#eaecee"/><polygon points="51.64 44.77 3.74 55.28 3.74 54.94 51.64 44.42 51.64 44.77" fill="#e9ebed"/><polygon points="51.64 45.12 3.74 55.63 3.74 55.28 51.64 44.77 51.64 45.12" fill="#e8ebec"/><polygon points="51.64 45.47 3.74 55.98 3.74 55.63 51.64 45.12 51.64 45.47" fill="#e7eaeb"/><polygon points="51.64 45.82 3.74 56.33 3.74 55.98 51.64 45.47 51.64 45.82" fill="#e6e9ea"/><polygon points="51.64 46.17 3.74 56.68 3.74 56.33 51.64 45.82 51.64 46.17" fill="#e5e8e9"/><polygon points="51.64 46.52 3.74 57.03 3.74 56.68 51.64 46.17 51.64 46.52" fill="#e4e7e9"/><polygon points="51.64 46.86 3.74 57.38 3.74 57.03 51.64 46.52 51.64 46.86" fill="#e3e6e8"/><polygon points="51.64 47.21 3.74 57.73 3.74 57.38 51.64 46.86 51.64 47.21" fill="#e2e5e7"/><polygon points="51.64 47.56 3.74 58.08 3.74 57.73 51.64 47.21 51.64 47.56" fill="#e1e4e6"/><polygon points="51.64 47.91 3.74 58.42 3.74 58.08 51.64 47.56 51.64 47.91" fill="#e0e3e5"/><polygon points="51.64 48.26 3.74 58.77 3.74 58.42 51.64 47.91 51.64 48.26" fill="#dfe2e4"/><polygon points="51.64 48.61 3.74 59.12 3.74 58.77 51.64 48.26 51.64 48.61" fill="#dee1e3"/><polygon points="51.64 48.96 3.74 59.47 3.74 59.12 51.64 48.61 51.64 48.96" fill="#dde1e3"/><polygon points="51.64 49.31 3.74 59.82 3.74 59.47 51.64 48.96 51.64 49.31" fill="#dce0e2"/><polygon points="51.64 49.65 3.74 60.17 3.74 59.82 51.64 49.31 51.64 49.65" fill="#dbdfe1"/><polygon points="51.64 50 3.74 60.52 3.74 60.17 51.64 49.65 51.64 50" fill="#dadee0"/><polygon points="51.64 50.35 3.74 60.87 3.74 60.52 51.64 50 51.64 50.35" fill="#d9dddf"/><polygon points="51.64 50.7 3.74 61.22 3.74 60.87 51.64 50.35 51.64 50.7" fill="#d8dcde"/><polygon points="51.64 51.05 3.74 61.56 3.74 61.22 51.64 50.7 51.64 51.05" fill="#d7dbde"/><polygon points="51.64 51.4 3.74 61.91 3.74 61.56 51.64 51.05 51.64 51.4" fill="#d6dadd"/><polygon points="51.64 51.75 3.74 62.26 3.74 61.91 51.64 51.4 51.64 51.75" fill="#d5d9dc"/><polygon points="51.64 52.1 3.74 62.61 3.74 62.26 51.64 51.75 51.64 52.1" fill="#d4d8db"/><polygon points="51.64 52.45 3.74 62.96 3.74 62.61 51.64 52.1 51.64 52.45" fill="#d3d7da"/><polygon points="51.64 52.79 3.74 63.31 3.74 62.96 51.64 52.45 51.64 52.79" fill="#d2d6d9"/><polygon points="51.64 53.14 3.74 63.66 3.74 63.31 51.64 52.79 51.64 53.14" fill="#d0d6d9"/><polygon points="51.64 53.49 3.74 64.01 3.74 63.66 51.64 53.14 51.64 53.49" fill="#cfd5d8"/><polygon points="51.64 53.84 3.74 64.36 3.74 64.01 51.64 53.49 51.64 53.84" fill="#ced4d7"/><polygon points="51.64 54.19 3.74 64.7 3.74 64.36 51.64 53.84 51.64 54.19" fill="#cdd3d6"/><polygon points="51.64 54.54 3.74 65.05 3.74 64.7 51.64 54.19 51.64 54.54" fill="#ccd2d5"/><polygon points="51.64 54.89 3.74 65.4 3.74 65.05 51.64 54.54 51.64 54.89" fill="#cbd1d4"/><polygon points="51.64 55.24 3.74 65.75 3.74 65.4 51.64 54.89 51.64 55.24" fill="#cad0d4"/><polygon points="51.64 55.59 3.74 66.1 3.74 65.75 51.64 55.24 51.64 55.59" fill="#c9cfd3"/><polygon points="51.64 55.93 3.74 66.45 3.74 66.1 51.64 55.59 51.64 55.93" fill="#c8ced2"/><polygon points="51.64 56.28 3.74 66.8 3.74 66.45 51.64 55.93 51.64 56.28" fill="#c7cdd1"/><polygon points="51.64 56.63 3.74 67.15 3.74 66.8 51.64 56.28 51.64 56.63" fill="#c6ccd0"/><polygon points="51.64 56.98 3.74 67.5 3.74 67.15 51.64 56.63 51.64 56.98" fill="#c5cbcf"/><polygon points="51.64 57.33 3.74 67.84 3.74 67.5 51.64 56.98 51.64 57.33" fill="#c4cbcf"/><polygon points="51.64 57.68 3.74 68.19 3.74 67.84 51.64 57.33 51.64 57.68" fill="#c3cace"/><polygon points="51.64 58.03 3.74 68.54 3.74 68.19 51.64 57.68 51.64 58.03" fill="#c2c9cd"/><polygon points="51.64 58.38 3.74 68.89 3.74 68.54 51.64 58.03 51.64 58.38" fill="#c1c8cc"/><polygon points="51.64 58.73 3.74 69.24 3.74 68.89 51.64 58.38 51.64 58.73" fill="#c0c7cb"/><polygon points="51.64 59.07 3.74 69.59 3.74 69.24 51.64 58.73 51.64 59.07" fill="#bfc6ca"/><polygon points="51.64 59.42 3.74 69.94 3.74 69.59 51.64 59.07 51.64 59.42" fill="#bec5c9"/><polygon points="51.64 59.77 3.74 70.29 3.74 69.94 51.64 59.42 51.64 59.77" fill="#bdc4c9"/><polygon points="51.64 60.12 3.74 70.63 3.74 70.29 51.64 59.77 51.64 60.12" fill="#bcc3c8"/><polygon points="51.64 60.47 3.74 70.98 3.74 70.63 51.64 60.12 51.64 60.47" fill="#bbc2c7"/><polygon points="51.64 60.82 3.74 71.33 3.74 70.98 51.64 60.47 51.64 60.82" fill="#bac1c6"/><polygon points="51.64 61.17 3.74 71.68 3.74 71.33 51.64 60.82 51.64 61.17" fill="#b9c1c5"/><polygon points="51.64 61.52 3.74 72.03 3.74 71.68 51.64 61.17 51.64 61.52" fill="#b8c0c4"/><polygon points="51.64 61.87 3.74 72.38 3.74 72.03 51.64 61.52 51.64 61.87" fill="#b7bfc4"/><polygon points="51.64 62.21 3.74 72.73 3.74 72.38 51.64 61.87 51.64 62.21" fill="#b6bec3"/><polygon points="51.64 62.56 3.74 73.08 3.74 72.73 51.64 62.21 51.64 62.56" fill="#b5bdc2"/><polygon points="51.64 62.91 3.74 73.42 3.74 73.08 51.64 62.56 51.64 62.91" fill="#b4bcc1"/><polygon points="51.64 63.26 3.74 73.77 3.74 73.42 51.64 62.91 51.64 63.26" fill="#b3bbc0"/><polygon points="51.64 63.61 3.74 74.12 3.74 73.77 51.64 63.26 51.64 63.61" fill="#b2babf"/><polygon points="51.64 63.96 3.74 74.47 3.74 74.12 51.64 63.61 51.64 63.96" fill="#b1b9bf"/><polygon points="51.64 64.31 3.74 74.82 3.74 74.47 51.64 63.96 51.64 64.31" fill="#b0b8be"/><polygon points="51.64 64.66 3.74 75.17 3.74 74.82 51.64 64.31 51.64 64.66" fill="#afb7bd"/><polygon points="51.64 65 3.74 75.52 3.74 75.17 51.64 64.66 51.64 65" fill="#aeb6bc"/><polygon points="51.64 65.35 3.74 75.87 3.74 75.52 51.64 65 51.64 65.35" fill="#adb6bb"/><polygon points="51.64 65.7 3.74 76.22 3.74 75.87 51.64 65.35 51.64 65.7" fill="#acb5ba"/><polygon points="51.64 66.05 3.74 76.56 3.74 76.22 51.64 65.7 51.64 66.05" fill="#abb4ba"/><polygon points="51.64 66.4 3.74 76.91 3.74 76.56 51.64 66.05 51.64 66.4" fill="#aab3b9"/><polygon points="51.64 66.75 3.74 77.26 3.74 76.91 51.64 66.4 51.64 66.75" fill="#a9b2b8"/><polygon points="51.64 67.1 3.74 77.61 3.74 77.26 51.64 66.75 51.64 67.1" fill="#a8b1b7"/><polygon points="51.64 67.32 3.74 77.84 3.74 77.61 51.64 67.1 51.64 67.32" fill="#a8b1b7"/><polygon points="51.64 67.55 3.74 78.06 3.74 77.84 51.64 67.32 51.64 67.55" fill="#a7b0b6"/><polygon points="51.64 67.77 3.74 78.28 3.74 78.06 51.64 67.55 51.64 67.77" fill="#a6afb5"/><polygon points="51.64 68 3.74 78.51 3.74 78.28 51.64 67.77 51.64 68" fill="#a5aeb4"/><polygon points="51.64 68.22 3.74 78.73 3.74 78.51 51.64 68 51.64 68.22" fill="#a4adb3"/><polygon points="51.64 68.44 3.74 78.96 3.74 78.73 51.64 68.22 51.64 68.44" fill="#a4acb2"/><polygon points="51.64 68.67 3.74 79.18 3.74 78.96 51.64 68.44 51.64 68.67" fill="#a3abb1"/><polygon points="51.64 68.89 3.74 79.41 3.74 79.18 51.64 68.67 51.64 68.89" fill="#a2aab0"/><polygon points="51.64 69.12 3.74 79.63 3.74 79.41 51.64 68.89 51.64 69.12" fill="#a1a9af"/><polygon points="51.64 69.34 3.74 79.85 3.74 79.63 51.64 69.12 51.64 69.34" fill="#a0a8ae"/><polygon points="51.64 69.56 3.74 80.08 3.74 79.85 51.64 69.34 51.64 69.56" fill="#9fa7ad"/><polygon points="51.64 69.79 3.74 80.3 3.74 80.08 51.64 69.56 51.64 69.79" fill="#9ea6ac"/><polygon points="51.64 70.01 3.74 80.53 3.74 80.3 51.64 69.79 51.64 70.01" fill="#9da5ab"/><polygon points="51.64 70.24 3.74 80.75 3.74 80.53 51.64 70.01 51.64 70.24" fill="#9ca4aa"/><polygon points="51.64 70.46 3.74 80.97 3.74 80.75 51.64 70.24 51.64 70.46" fill="#9ba3a9"/><polygon points="51.64 70.69 3.74 81.2 3.74 80.97 51.64 70.46 51.64 70.69" fill="#9ba2a8"/><polygon points="51.64 70.91 3.74 81.42 3.74 81.2 51.64 70.69 51.64 70.91" fill="#9aa1a7"/><polygon points="51.64 71.13 3.74 81.65 3.74 81.42 51.64 70.91 51.64 71.13" fill="#99a1a6"/><polygon points="51.64 71.36 3.74 81.87 3.74 81.65 51.64 71.13 51.64 71.36" fill="#98a0a5"/><polygon points="51.64 71.58 3.74 82.1 3.74 81.87 51.64 71.36 51.64 71.58" fill="#979fa4"/><polygon points="51.64 71.81 3.74 82.32 3.74 82.1 51.64 71.58 51.64 71.81" fill="#969ea3"/><polygon points="51.64 72.03 3.74 82.55 3.74 82.32 51.64 71.81 51.64 72.03" fill="#959da2"/><polygon points="51.64 72.25 3.74 82.77 3.74 82.55 51.64 72.03 51.64 72.25" fill="#949ca1"/><polygon points="51.64 72.48 3.74 82.99 3.74 82.77 51.64 72.25 51.64 72.48" fill="#939ba0"/><polygon points="51.64 72.7 3.74 83.22 3.74 82.99 51.64 72.48 51.64 72.7" fill="#939a9f"/><polygon points="51.64 72.93 3.74 83.44 3.74 83.22 51.64 72.7 51.64 72.93" fill="#92999e"/><polygon points="51.64 73.15 3.74 83.67 3.74 83.44 51.64 72.93 51.64 73.15" fill="#91989d"/><polygon points="51.64 73.38 3.74 83.89 3.74 83.67 51.64 73.15 51.64 73.38" fill="#90979c"/><polygon points="51.64 73.6 3.74 84.11 3.74 83.89 51.64 73.38 51.64 73.6" fill="#8f969b"/><polygon points="51.64 73.83 3.74 84.34 3.74 84.11 51.64 73.6 51.64 73.83" fill="#8e959a"/><polygon points="51.64 74.05 3.74 84.56 3.74 84.34 51.64 73.83 51.64 74.05" fill="#8d9499"/><polygon points="51.64 74.27 3.74 84.79 3.74 84.56 51.64 74.05 51.64 74.27" fill="#8c9398"/><polygon points="51.64 74.5 3.74 85.01 3.74 84.79 51.64 74.27 51.64 74.5" fill="#8b9297"/><polygon points="51.64 74.72 3.74 85.24 3.74 85.01 51.64 74.5 51.64 74.72" fill="#8a9196"/><polygon points="51.64 74.95 3.74 85.46 3.74 85.24 51.64 74.72 51.64 74.95" fill="#8a9094"/><polygon points="51.64 75.17 3.74 85.68 3.74 85.46 51.64 74.95 51.64 75.17" fill="#898f93"/><polygon points="51.64 75.39 3.74 85.91 3.74 85.68 51.64 75.17 51.64 75.39" fill="#888e92"/><polygon points="51.64 75.62 3.74 86.13 3.74 85.91 51.64 75.39 51.64 75.62" fill="#878d91"/><polygon points="51.64 75.84 3.74 86.36 3.74 86.13 51.64 75.62 51.64 75.84" fill="#868c90"/><polygon points="51.64 76.07 3.74 86.58 3.74 86.36 51.64 75.84 51.64 76.07" fill="#858b8f"/><polygon points="51.64 76.29 3.74 86.81 3.74 86.58 51.64 76.07 51.64 76.29" fill="#848a8e"/><polygon points="51.64 76.52 3.74 87.03 3.74 86.81 51.64 76.29 51.64 76.52" fill="#83898d"/><polygon points="51.64 76.74 3.74 87.25 3.74 87.03 51.64 76.52 51.64 76.74" fill="#82888c"/><polygon points="51.64 76.96 3.74 87.48 3.74 87.25 51.64 76.74 51.64 76.96" fill="#81878b"/><polygon points="51.64 77.19 3.75 87.7 3.74 87.64 3.74 87.48 51.64 76.96 51.64 77.19" fill="#81868a"/><polygon points="51.64 77.41 3.8 87.91 3.75 87.7 51.64 77.19 51.64 77.41" fill="#808589"/><polygon points="51.64 77.64 3.85 88.13 3.8 87.91 51.64 77.41 51.64 77.64" fill="#7f8488"/><polygon points="51.64 77.86 3.89 88.34 3.85 88.13 51.64 77.64 51.64 77.86" fill="#7e8387"/><polygon points="51.64 78.09 3.94 88.56 3.89 88.34 51.64 77.86 51.64 78.09" fill="#7d8286"/><polygon points="51.64 78.31 3.99 88.77 3.94 88.56 51.64 78.09 51.64 78.31" fill="#7c8185"/><polygon points="51.64 78.53 4.04 88.98 3.99 88.77 51.64 78.31 51.64 78.53" fill="#7b8084"/><polygon points="51.64 78.76 4.83 89.03 4.05 89.03 4.04 88.98 51.64 78.53 51.64 78.76" fill="#7a8083"/><polygon points="51.64 78.98 5.85 89.03 4.83 89.03 51.64 78.76 51.64 78.98" fill="#797f82"/><polygon points="51.64 79.21 6.88 89.03 5.85 89.03 51.64 78.98 51.64 79.21" fill="#797e81"/><polygon points="51.64 79.43 7.9 89.03 6.88 89.03 51.64 79.21 51.64 79.43" fill="#787d80"/><polygon points="51.64 79.66 8.92 89.03 7.9 89.03 51.64 79.43 51.64 79.66" fill="#777c7f"/><polygon points="51.64 79.88 9.94 89.03 8.92 89.03 51.64 79.66 51.64 79.88" fill="#767b7e"/><polygon points="51.64 80.1 10.96 89.03 9.94 89.03 51.64 79.88 51.64 80.1" fill="#757a7d"/><polygon points="51.64 80.33 11.98 89.03 10.96 89.03 51.64 80.1 51.64 80.33" fill="#74797c"/><polygon points="51.64 80.55 13.01 89.03 11.98 89.03 51.64 80.33 51.64 80.55" fill="#73787b"/><polygon points="51.64 80.78 14.03 89.03 13.01 89.03 51.64 80.55 51.64 80.78" fill="#72777a"/><polygon points="51.64 81 15.05 89.03 14.03 89.03 51.64 80.78 51.64 81" fill="#717679"/><polygon points="51.64 81.22 16.07 89.03 15.05 89.03 51.64 81 51.64 81.22" fill="#707578"/><polygon points="51.64 81.45 17.09 89.03 16.07 89.03 51.64 81.22 51.64 81.45" fill="#707477"/><polygon points="51.64 81.67 18.11 89.03 17.09 89.03 51.64 81.45 51.64 81.67" fill="#6f7376"/><polygon points="51.64 81.9 19.13 89.03 18.11 89.03 51.64 81.67 51.64 81.9" fill="#6e7275"/><polygon points="51.64 82.12 20.16 89.03 19.13 89.03 51.64 81.9 51.64 82.12" fill="#6d7174"/><polygon points="51.64 82.35 21.18 89.03 20.16 89.03 51.64 82.12 51.64 82.35" fill="#6c7073"/><polygon points="21.18 89.03 51.64 82.35 51.64 89.03 21.18 89.03" fill="#6c7073"/></g><g clip-path="url(#d)"><rect x="14.82" y="77.7" width="25.74" height="0.26" fill="#a4adb3"/><rect x="14.82" y="77.24" width="25.74" height="0.46" fill="#a4acb2"/><rect x="14.82" y="76.78" width="25.74" height="0.46" fill="#a3abb1"/><rect x="14.82" y="76.33" width="25.74" height="0.46" fill="#a2aab0"/><rect x="14.82" y="75.87" width="25.74" height="0.46" fill="#a1a9af"/><rect x="14.82" y="75.41" width="25.74" height="0.46" fill="#a0a8ae"/><rect x="14.82" y="74.96" width="25.74" height="0.46" fill="#9fa7ad"/><rect x="14.82" y="74.5" width="25.74" height="0.46" fill="#9ea6ac"/><rect x="14.82" y="74.04" width="25.74" height="0.46" fill="#9da5ab"/><rect x="14.82" y="73.59" width="25.74" height="0.46" fill="#9ca4aa"/><rect x="14.82" y="73.13" width="25.74" height="0.46" fill="#9ba3a9"/><rect x="14.82" y="72.68" width="25.74" height="0.46" fill="#9ba2a8"/><rect x="14.82" y="72.22" width="25.74" height="0.46" fill="#9aa1a7"/><rect x="14.82" y="71.76" width="25.74" height="0.46" fill="#99a1a6"/><rect x="14.82" y="71.31" width="25.74" height="0.46" fill="#98a0a5"/><rect x="14.82" y="70.85" width="25.74" height="0.46" fill="#979fa4"/><rect x="14.82" y="70.39" width="25.74" height="0.46" fill="#969ea3"/><rect x="14.82" y="69.94" width="25.74" height="0.46" fill="#959da2"/><rect x="14.82" y="69.48" width="25.74" height="0.46" fill="#949ca1"/><rect x="14.82" y="69.02" width="25.74" height="0.46" fill="#939ba0"/><rect x="14.82" y="68.57" width="25.74" height="0.46" fill="#939a9f"/><rect x="14.82" y="68.11" width="25.74" height="0.46" fill="#92999e"/><rect x="14.82" y="67.66" width="25.74" height="0.46" fill="#91989d"/><rect x="14.82" y="67.2" width="25.74" height="0.46" fill="#90979c"/><rect x="14.82" y="66.74" width="25.74" height="0.46" fill="#8f969b"/><rect x="14.82" y="66.29" width="25.74" height="0.46" fill="#8e959a"/><rect x="14.82" y="65.83" width="25.74" height="0.46" fill="#8d9499"/><rect x="14.82" y="65.37" width="25.74" height="0.46" fill="#8c9398"/><rect x="14.82" y="64.92" width="25.74" height="0.46" fill="#8b9297"/><rect x="14.82" y="64.46" width="25.74" height="0.46" fill="#8a9196"/><rect x="14.82" y="64.01" width="25.74" height="0.46" fill="#8a9094"/><rect x="14.82" y="63.55" width="25.74" height="0.46" fill="#898f93"/><rect x="14.82" y="63.09" width="25.74" height="0.46" fill="#888e92"/><rect x="14.82" y="62.64" width="25.74" height="0.46" fill="#878d91"/><rect x="14.82" y="62.18" width="25.74" height="0.46" fill="#868c90"/><rect x="14.82" y="61.72" width="25.74" height="0.46" fill="#858b8f"/><rect x="14.82" y="61.27" width="25.74" height="0.46" fill="#848a8e"/><rect x="14.82" y="60.81" width="25.74" height="0.46" fill="#83898d"/><rect x="14.82" y="60.35" width="25.74" height="0.46" fill="#82888c"/><rect x="14.82" y="59.9" width="25.74" height="0.46" fill="#81878b"/><rect x="14.82" y="59.44" width="25.74" height="0.46" fill="#81868a"/><rect x="14.82" y="58.99" width="25.74" height="0.46" fill="#808589"/><rect x="14.82" y="58.53" width="25.74" height="0.46" fill="#7f8488"/><rect x="14.82" y="58.07" width="25.74" height="0.46" fill="#7e8387"/><rect x="14.82" y="57.62" width="25.74" height="0.46" fill="#7d8286"/><rect x="14.82" y="57.16" width="25.74" height="0.46" fill="#7c8185"/><rect x="14.82" y="56.7" width="25.74" height="0.46" fill="#7b8084"/><rect x="14.82" y="56.25" width="25.74" height="0.46" fill="#7a8083"/><rect x="14.82" y="55.79" width="25.74" height="0.46" fill="#797f82"/><rect x="14.82" y="55.33" width="25.74" height="0.46" fill="#797e81"/><rect x="14.82" y="54.88" width="25.74" height="0.46" fill="#787d80"/><rect x="14.82" y="54.42" width="25.74" height="0.46" fill="#777c7f"/><rect x="14.82" y="53.97" width="25.74" height="0.46" fill="#767b7e"/><rect x="14.82" y="53.51" width="25.74" height="0.46" fill="#757a7d"/><rect x="14.82" y="53.05" width="25.74" height="0.46" fill="#74797c"/><rect x="14.82" y="52.6" width="25.74" height="0.46" fill="#73787b"/><rect x="14.82" y="52.21" width="25.74" height="0.38" fill="#72777a"/><rect x="12.69" y="79.98" width="29.99" height="0.1" fill="#a8b1b7"/><rect x="12.69" y="79.52" width="29.99" height="0.46" fill="#a8b1b7"/><rect x="12.69" y="79.06" width="29.99" height="0.46" fill="#a7b0b6"/><rect x="12.69" y="78.61" width="29.99" height="0.46" fill="#a6afb5"/><rect x="12.69" y="78.15" width="29.99" height="0.46" fill="#a5aeb4"/><rect x="12.69" y="77.7" width="29.99" height="0.46" fill="#a4adb3"/><rect x="12.69" y="77.24" width="29.99" height="0.46" fill="#a4acb2"/><rect x="12.69" y="76.78" width="29.99" height="0.46" fill="#a3abb1"/><rect x="12.69" y="76.33" width="29.99" height="0.46" fill="#a2aab0"/><rect x="12.69" y="75.87" width="29.99" height="0.46" fill="#a1a9af"/><rect x="12.69" y="75.41" width="29.99" height="0.46" fill="#a0a8ae"/><rect x="12.69" y="74.96" width="29.99" height="0.46" fill="#9fa7ad"/><rect x="12.69" y="74.5" width="29.99" height="0.46" fill="#9ea6ac"/><rect x="12.69" y="74.04" width="29.99" height="0.46" fill="#9da5ab"/><rect x="12.69" y="73.59" width="29.99" height="0.46" fill="#9ca4aa"/><rect x="12.69" y="73.13" width="29.99" height="0.46" fill="#9ba3a9"/><rect x="12.69" y="72.68" width="29.99" height="0.46" fill="#9ba2a8"/><rect x="12.69" y="72.22" width="29.99" height="0.46" fill="#9aa1a7"/><rect x="12.69" y="71.76" width="29.99" height="0.46" fill="#99a1a6"/><rect x="12.69" y="71.31" width="29.99" height="0.46" fill="#98a0a5"/><rect x="12.69" y="70.85" width="29.99" height="0.46" fill="#979fa4"/><rect x="12.69" y="70.39" width="29.99" height="0.46" fill="#969ea3"/><rect x="12.69" y="69.94" width="29.99" height="0.46" fill="#959da2"/><rect x="12.69" y="69.48" width="29.99" height="0.46" fill="#949ca1"/><rect x="12.69" y="69.02" width="29.99" height="0.46" fill="#939ba0"/><rect x="12.69" y="68.57" width="29.99" height="0.46" fill="#939a9f"/><rect x="12.69" y="68.11" width="29.99" height="0.46" fill="#92999e"/><rect x="12.69" y="67.66" width="29.99" height="0.46" fill="#91989d"/><rect x="12.69" y="67.2" width="29.99" height="0.46" fill="#90979c"/><rect x="12.69" y="66.74" width="29.99" height="0.46" fill="#8f969b"/><rect x="12.69" y="66.29" width="29.99" height="0.46" fill="#8e959a"/><rect x="12.69" y="65.83" width="29.99" height="0.46" fill="#8d9499"/><rect x="12.69" y="65.37" width="29.99" height="0.46" fill="#8c9398"/><rect x="12.69" y="64.92" width="29.99" height="0.46" fill="#8b9297"/><rect x="12.69" y="64.46" width="29.99" height="0.46" fill="#8a9196"/><rect x="12.69" y="64.01" width="29.99" height="0.46" fill="#8a9094"/><rect x="12.69" y="63.55" width="29.99" height="0.46" fill="#898f93"/><rect x="12.69" y="63.09" width="29.99" height="0.46" fill="#888e92"/><rect x="12.69" y="62.64" width="29.99" height="0.46" fill="#878d91"/><rect x="12.69" y="62.18" width="29.99" height="0.46" fill="#868c90"/><rect x="12.69" y="61.72" width="29.99" height="0.46" fill="#858b8f"/><rect x="12.69" y="61.27" width="29.99" height="0.46" fill="#848a8e"/><rect x="12.69" y="60.81" width="29.99" height="0.46" fill="#83898d"/><rect x="12.69" y="60.35" width="29.99" height="0.46" fill="#82888c"/><rect x="12.69" y="59.9" width="29.99" height="0.46" fill="#81878b"/><rect x="12.69" y="59.44" width="29.99" height="0.46" fill="#81868a"/><rect x="12.69" y="58.99" width="29.99" height="0.46" fill="#808589"/><rect x="12.69" y="58.53" width="29.99" height="0.46" fill="#7f8488"/><rect x="12.69" y="58.07" width="29.99" height="0.46" fill="#7e8387"/><rect x="12.69" y="57.62" width="29.99" height="0.46" fill="#7d8286"/><rect x="12.69" y="57.16" width="29.99" height="0.46" fill="#7c8185"/><rect x="12.69" y="56.7" width="29.99" height="0.46" fill="#7b8084"/><rect x="12.69" y="56.25" width="29.99" height="0.46" fill="#7a8083"/><rect x="12.69" y="55.79" width="29.99" height="0.46" fill="#797f82"/><rect x="12.69" y="55.33" width="29.99" height="0.46" fill="#797e81"/><rect x="12.69" y="54.88" width="29.99" height="0.46" fill="#787d80"/><rect x="12.69" y="54.42" width="29.99" height="0.46" fill="#777c7f"/><rect x="12.69" y="53.97" width="29.99" height="0.46" fill="#767b7e"/><rect x="12.69" y="53.51" width="29.99" height="0.46" fill="#757a7d"/><rect x="12.69" y="53.05" width="29.99" height="0.46" fill="#74797c"/><rect x="12.69" y="52.6" width="29.99" height="0.46" fill="#73787b"/><rect x="12.69" y="52.14" width="29.99" height="0.46" fill="#72777a"/><rect x="12.69" y="51.68" width="29.99" height="0.46" fill="#717679"/><rect x="12.69" y="51.23" width="29.99" height="0.46" fill="#707578"/><rect x="12.69" y="50.77" width="29.99" height="0.46" fill="#707477"/><rect x="12.69" y="50.31" width="29.99" height="0.46" fill="#6f7376"/><rect x="12.69" y="50.09" width="29.99" height="0.23" fill="#6e7275"/></g></svg>